PathFileType        4      (X/Y/Z)      C:\Users\pc\Desktop\IMUTRC\Sujet_02\Sujet_02_velo_60.trc         
DataRate	CameraRate	NumFrames	NumMarkers	Units	OrigDataRate	OrigDataStartFrame	OrigNumFrames
60.0	60.0	4	64	mm	60.0	313	1250
Frame#	Time	pHipOrigin			pRightASI			pLeftASI			pRightCSI			pLeftCSI			pRightIschialTub			pLeftIschialTub			pSacrum			pL5SpinalProcess			pL3SpinalProcess			pT12SpinalProcess			pIJ			pT4SpinalProcess			pT8SpinalProcess			pPX			pC7SpinalProcess			pTopOfHead			pRightAuricularis			pLeftAuricularis			pBackOfHead			pRightAcromion			pLeftAcromion			pRightArmLatEpicondyle			pRightArmMedEpicondyle			pLeftArmLatEpicondyle			pLeftArmMedEpicondyle			pRightUlnarStyloid			pRightRadialStyloid			pRightOlecranon			pLeftUlnarStyloid			pLeftRadialStyloid			pLeftOlecranon			pRightTopOfHand			pRightPinky			pRightBallHand			pLeftTopOfHand			pLeftPinky			pLeftBallHand			pRightGreaterTrochanter			pRightKneeLatEpicondyle			pRightKneeMedEpicondyle			pRightPatella			pLeftGreaterTrochanter			pLeftKneeLatEpicondyle			pLeftKneeMedEpicondyle			pLeftPatella			pRightTibialTub			pRightLatMalleolus			pRightMedMalleolus			pLeftTibialTub			pLeftLatMalleolus			pLeftMedMalleolus			pRightHeelFoot			pRightFirstMetatarsal			pRightFifthMetatarsal			pRightPivotFoot			pRightHeelCenter			pRightToe			pLeftHeelFoot			pLeftFirstMetatarsal			pLeftFifthMetatarsal			pLeftPivotFoot			pLeftHeelCenter			pLeftToe			
		X1	Y1	Z1	X2	Y2	Z2	X3	Y3	Z3	X4	Y4	Z4	X5	Y5	Z5	X6	Y6	Z6	X7	Y7	Z7	X8	Y8	Z8	X9	Y9	Z9	X10	Y10	Z10	X11	Y11	Z11	X12	Y12	Z12	X13	Y13	Z13	X14	Y14	Z14	X15	Y15	Z15	X16	Y16	Z16	X17	Y17	Z17	X18	Y18	Z18	X19	Y19	Z19	X20	Y20	Z20	X21	Y21	Z21	X22	Y22	Z22	X23	Y23	Z23	X24	Y24	Z24	X25	Y25	Z25	X26	Y26	Z26	X27	Y27	Z27	X28	Y28	Z28	X29	Y29	Z29	X30	Y30	Z30	X31	Y31	Z31	X32	Y32	Z32	X33	Y33	Z33	X34	Y34	Z34	X35	Y35	Z35	X36	Y36	Z36	X37	Y37	Z37	X38	Y38	Z38	X39	Y39	Z39	X40	Y40	Z40	X41	Y41	Z41	X42	Y42	Z42	X43	Y43	Z43	X44	Y44	Z44	X45	Y45	Z45	X46	Y46	Z46	X47	Y47	Z47	X48	Y48	Z48	X49	Y49	Z49	X50	Y50	Z50	X51	Y51	Z51	X52	Y52	Z52	X53	Y53	Z53	X54	Y54	Z54	X55	Y55	Z55	X56	Y56	Z56	X57	Y57	Z57	X58	Y58	Z58	X59	Y59	Z59	X60	Y60	Z60	X61	Y61	Z61	X62	Y62	Z62	X63	Y63	Z63	X64	Y64	Z64	
313	5.2	0.0	1250.02827	7.654215598496017E-14	47.674440000000004	1369.44246	143.19439000000008	42.199859999999994	1368.41598	-145.76059999999993	-15.226169999999993	1427.66686	118.10258000000009	-19.73129000000001	1426.81146	-118.72986999999992	-42.65606999999999	1177.83229	60.33439000000007	-44.880120000000005	1177.37608	-58.110349999999926	-74.30597	1255.55987	1.3686400000000813	-57.19792	1372.75002	0.6843200000000876	-16.82292	1487.60207	9.010240000000092	31.19368	1588.14038	20.30155000000009	291.92038	1633.19159	43.055260000000075	169.65484	1733.55882	48.016600000000096	97.1167	1675.33442	34.501240000000095	196.22935	1549.59024	24.236410000000085	220.75089	1768.68735	57.882240000000095	459.63631	1779.4084	81.77648000000009	368.33634	1747.81553	132.0171300000001	380.02684	1780.37785	7.4134900000000865	364.0023	1812.48396	81.43432000000008	179.63454000000002	1699.85596	250.46187000000012	225.99736	1755.00091	-151.57732999999988	251.08916000000002	1415.17799	292.0914600000001	214.76307000000003	1392.88049	243.33351000000008	309.76978	1460.91351	-143.36546999999993	266.77154	1445.51626	-97.40183999999994	362.40555	1160.95235	352.19775000000004	402.6665	1176.23554	312.50707000000006	210.42903000000004	1403.88667	287.75742000000014	436.82557	1213.41704	-180.54696999999993	468.81763	1229.44158	-134.18414999999993	269.79397	1452.35949	-144.62005999999994	548.6552	1081.28586	338.05509	463.4571	1095.31446	366.7966200000001	402.26731	1134.77703	341.76183000000003	627.01007	1193.40062	-91.52806999999997	558.06463	1176.46365	-148.44085999999993	483.6446	1195.73872	-152.60381999999996	15.967510000000011	1224.42322	176.6121100000001	242.25	837.83829	156.65272000000002	247.61053	837.72424	70.20004000000004	285.13419	864.98306	112.97016000000005	34.33015999999999	1233.0913	-173.36157999999992	455.92956	1093.43257	-111.94367999999996	452.62201	1099.93363	-25.66207999999996	466.53655	1143.67322	-69.00246999999996	300.4744	796.66491	116.16367000000002	180.2048	381.68062	129.50795000000002	188.4737	382.76413	61.58898000000001	481.0784	1043.42004	-72.93731999999997	193.32098	729.82946	-148.55490999999995	192.12341	722.01678	-80.57891999999997	120.95392	273.61476	67.63383	302.8125	236.26219	78.58298	275.89584	230.38842	162.07026999999997	312.96328	227.87924	126.31444	161.04379	263.0648	79.78054	391.60329	210.42903	150.43679999999998	76.87218	670.00831	-108.69314999999996	207.80579	538.21929	-100.48128999999999	197.31286	550.93627	-186.81991999999997	220.06656	527.09905	-147.12923999999998	106.18396999999999	639.3849	-116.79095999999996	279.37447	469.616	-162.81162	
314	5.217	0.0	1250.02827	7.654215598496017E-14	47.33227000000001	1369.44246	143.30844000000008	42.14282999999999	1368.53003	-145.6465399999999	-15.625349999999992	1427.55281	118.21663000000008	-19.90237000000001	1426.81146	-118.67284999999991	-42.59904999999999	1177.71824	60.22034000000007	-44.70904000000001	1177.31905	-58.22439999999993	-74.363	1255.44582	1.3116200000000815	-57.42602	1372.75002	0.7413500000000876	-16.994	1487.60207	8.953210000000093	31.13665	1588.08336	20.073450000000093	291.86335	1632.7924	42.42797000000008	169.82592	1733.38774	47.3893000000001	97.17373	1675.27739	34.10205000000009	196.00124	1549.30511	23.894240000000085	220.97899	1768.40222	57.14089000000009	459.86441	1779.12326	80.57892000000008	368.6785	1747.58742	131.0476700000001	380.19792	1779.97866	6.329980000000086	364.28743	1812.19883	80.35081000000008	179.63454000000002	1699.85596	249.89160000000012	225.42709	1754.20253	-152.43273999999988	250.86106000000004	1415.06393	291.97741000000013	214.53496000000004	1392.76644	243.21946000000008	308.85735	1460.00108	-142.96627999999995	265.97317	1444.946	-96.77453999999993	362.00636	1160.78127	352.4258500000001	402.26731	1176.06446	312.79220000000004	210.20092000000002	1403.77262	287.5863400000001	436.36936	1212.78974	-179.69155999999995	468.41844	1229.04239	-133.49982999999995	268.88154	1451.44706	-144.04978999999994	548.25601	1081.22883	338.34022	463.05792	1095.2004	367.08175000000006	401.86812	1134.66298	341.98994000000005	626.66791	1192.9444	-90.90077999999997	557.66544	1176.00743	-147.75652999999994	483.18839	1195.22548	-151.86246999999995	15.39725000000001	1223.967	176.5550900000001	238.2011	835.38614	155.79732000000004	243.7327	835.50019	69.34463000000004	281.42744	862.3028	112.28584000000004	35.07149999999999	1233.77562	-173.1334799999999	459.12306	1102.72795	-109.49152999999995	455.30227	1109.28603	-23.20991999999996	468.53249	1153.25373	-66.55031999999996	295.45604	793.0152	115.08016000000003	165.03567	380.9963	125.05985000000001	173.53267	382.36494	57.19792000000002	485.69757	1053.45676	-70.08597999999996	207.46363	731.48324	-146.04572999999993	206.03796	723.9557	-78.01270999999997	103.16155	275.04043	62.15925000000001	283.93662	232.8976	73.05138	256.79185	227.08087	156.42460999999997	293.85929	223.88736	120.66879	142.90925	263.40696	74.30597	371.98606	204.2131	144.73410999999996	92.15537	669.49507	-105.61369999999995	225.82627	540.55739	-96.94561999999999	214.87712	552.53302	-183.34127999999998	238.2011	529.38013	-143.53655	122.09446	639.44192	-113.59745999999997	298.7636	473.03761	-159.04785	
315	5.233	0.0	1250.02827	7.654215598496017E-14	46.93309000000001	1369.44246	143.4795200000001	42.31390999999999	1368.70112	-145.5324899999999	-16.081569999999992	1427.49578	118.27366000000009	-19.845340000000007	1426.86849	-118.61581999999991	-42.59904999999999	1177.66121	60.10629000000007	-44.537960000000005	1177.31905	-58.33844999999993	-74.363	1255.38879	1.1975600000000814	-57.54008	1372.69299	0.6843200000000876	-17.05102	1487.60207	8.896190000000093	31.19368	1588.08336	19.902370000000094	292.03443	1632.27916	41.686620000000076	170.22511	1733.15963	46.762010000000096	97.40184	1675.16334	33.70286000000009	195.94421	1548.96295	23.495060000000084	221.43521	1768.06006	56.34251000000009	460.32063	1778.83813	79.21028000000008	369.3058	1747.24526	129.96416000000008	380.48306	1779.52245	5.189440000000086	364.74365	1811.79964	79.21028000000008	179.86264000000003	1699.85596	249.2643000000001	225.14195	1753.2901	-153.28813999999988	250.74700000000004	1414.89285	291.86335000000014	214.42091000000002	1392.53833	243.1054100000001	308.05897	1458.91757	-142.51006999999996	265.34587	1444.20465	-96.03318999999993	361.72123	1160.61019	352.5399100000001	402.09623	1175.83635	312.96328000000005	210.08687000000003	1403.60154	287.4152600000001	436.0272	1212.10542	-178.89318999999995	468.19033	1228.52915	-132.81549999999993	268.08316	1450.4776	-143.36546999999993	548.08493	1081.05775	338.5113	462.88684	1095.02932	367.2528300000001	401.64001	1134.43487	342.16102000000006	626.4398	1192.43116	-90.33050999999998	557.43733	1175.49419	-147.12923999999995	482.90326	1194.65521	-151.17813999999996	14.76995000000001	1223.56782	176.5550900000001	236.31921	834.35965	155.56921000000003	242.25	834.64479	69.17355000000005	279.83069	861.21929	112.39990000000004	35.81284999999999	1234.28886	-172.96239999999992	461.63225	1110.19846	-107.32450999999996	457.35523	1116.8706	-21.09992999999996	470.07222	1160.95235	-64.49734999999995	292.43362	790.6771	114.73800000000003	150.32274	382.53602	120.26960000000001	159.10488	384.30385	52.407660000000014	489.63242	1061.83971	-67.46274999999996	221.89142	731.08405	-143.42249999999996	220.29467	723.89867	-75.38947999999998	85.71134	278.80421	56.28549000000001	265.23182	231.64301	67.12059	237.74488	225.76925	150.43679999999998	274.81233	221.89142	114.738	125.11688	265.97317	68.4322	352.3118	199.87906	138.80331999999999	107.78072	666.81481	-102.30614999999996	244.18892	540.84252	-93.12481999999999	232.78355	552.01978	-179.57751	256.73482	529.66526	-139.71575	138.34711	637.33193	-110.17584999999997	318.43786	474.52031	-154.99894	
316	5.25	0.0	1250.02827	7.654215598496017E-14	46.59093000000001	1369.38544	143.65060000000008	42.542019999999994	1368.75814	-145.36140999999992	-16.423729999999992	1427.38173	118.33069000000009	-19.73129000000001	1426.92552	-118.55878999999992	-42.71309999999999	1177.60418	59.99223000000007	-44.36688000000001	1177.31905	-58.452509999999926	-74.363	1255.33176	1.0264800000000815	-57.59711	1372.69299	0.6843200000000876	-16.994	1487.60207	8.839160000000092	31.36476	1588.02633	19.731290000000094	292.31957	1631.76591	41.002300000000076	170.68132	1732.93152	46.2487600000001	97.744	1675.04928	33.360700000000094	196.05827	1548.67781	23.095870000000087	221.94845	1767.71789	55.65819000000009	460.94792	1778.55299	77.89866000000009	370.04715	1746.96013	128.8806500000001	380.88224	1779.06623	4.105930000000086	365.25689	1811.45748	78.06974000000008	180.31886000000003	1699.7419	248.7510600000001	225.0279	1752.4347	-154.0865099999999	250.91808000000003	1414.66475	291.6352400000001	214.53496000000004	1392.31023	242.87730000000008	307.65979	1458.06217	-142.16789999999995	265.06074	1443.63438	-95.51994999999992	361.72123	1160.38208	352.59693000000004	402.15325	1175.60825	313.07734000000005	210.20092000000002	1403.37343	287.1871500000001	436.0272	1211.47813	-178.32291999999995	468.24736	1228.12996	-132.30225999999993	267.68397	1449.6222	-142.90924999999993	548.14196	1080.9437	338.56833	462.94386	1094.85824	367.30986000000007	401.69704	1134.26379	342.21805000000006	626.49683	1191.86089	-89.93131999999997	557.43733	1174.98095	-146.67301999999995	482.96028	1194.14197	-150.66489999999993	14.08563000000001	1223.39673	176.5550900000001	236.31921	834.47371	156.19651000000002	242.76325	834.98695	69.85788000000004	280.0588	861.50443	113.31233000000005	36.38311999999999	1234.57399	-172.84833999999992	463.28602	1114.98872	-105.78477999999996	458.72388	1121.88896	-19.560209999999962	471.04167	1165.97071	-63.01464999999996	291.17903	789.59359	115.19421000000003	136.52225	385.95763	115.53637000000002	145.81762	388.12465	47.73146000000001	492.93998	1067.59942	-65.52383999999996	235.863	728.40379	-141.02736999999996	234.15219	721.44652	-72.99434999999997	69.34463	284.735	50.525780000000005	247.43945	232.32733	61.24682	219.61035	226.56762	144.44898	256.56374	221.94845	108.80721	108.35099	270.64937	62.61547000000001	333.37889	197.48394	132.75847999999996	123.29202	661.34023	-99.34074999999997	263.00777	539.01766	-89.70320999999998	251.14619	549.33952	-176.1559	275.72476	527.89743	-136.23711	154.59976	632.5987	-107.09639999999997	338.79644	474.34923	-151.2922	
